<svg width="101" height="28" viewBox="0 0 101 28" fill="none" xmlns="http://www.w3.org/2000/svg">
<path d="M9.61065 20.9435C9.22465 21.1415 8.78665 20.7945 8.86465 20.3515L9.69465 15.6215L6.17165 12.2655C5.84265 11.9515 6.01365 11.3775 6.45465 11.3155L11.3527 10.6195L13.5367 6.2925C13.7337 5.9025 14.2667 5.9025 14.4637 6.2925L16.6476 10.6195L21.5456 11.3155C21.9866 11.3775 22.1576 11.9515 21.8286 12.2655L18.3056 15.6215L19.1356 20.3515C19.2136 20.7945 18.7756 21.1415 18.3896 20.9435L13.9987 18.6875L9.61065 20.9435Z" fill="#EAB806"/>
<g clip-path="url(#clip0)">
<path d="M27.1159 20.85C27.0379 21.294 27.4759 21.641 27.8619 21.443L32.2519 19.187L36.6409 21.443C37.0269 21.641 37.4649 21.294 37.3869 20.851L36.5569 16.121L40.0799 12.765C40.4089 12.451 40.2379 11.877 39.7969 11.815L34.8989 11.119L32.7149 6.79198C32.6733 6.70427 32.6076 6.63017 32.5256 6.57828C32.4435 6.52639 32.3484 6.49884 32.2514 6.49884C32.1543 6.49884 32.0592 6.52639 31.9772 6.57828C31.8951 6.63017 31.8295 6.70427 31.7879 6.79198L29.6039 11.12L24.7059 11.816C24.2649 11.878 24.0939 12.452 24.4229 12.766L27.9459 16.122L27.1159 20.852V20.85ZM32.0209 18.083L28.3349 19.977L29.0289 16.02C29.0451 15.9289 29.0388 15.8352 29.0103 15.7472C28.9819 15.6591 28.9323 15.5794 28.8659 15.515L25.9599 12.745L30.0119 12.169C30.0958 12.1563 30.1754 12.1235 30.2438 12.0733C30.3122 12.0232 30.3675 11.9572 30.4049 11.881L32.2519 8.22298L34.0979 11.881C34.1352 11.9572 34.1905 12.0232 34.2589 12.0733C34.3274 12.1235 34.407 12.1563 34.4909 12.169L38.5429 12.744L35.6369 15.514C35.5702 15.5784 35.5204 15.6583 35.492 15.7466C35.4636 15.8348 35.4574 15.9287 35.4739 16.02L36.1679 19.977L32.4819 18.083C32.4106 18.0462 32.3316 18.0271 32.2514 18.0271C32.1712 18.0271 32.0921 18.0462 32.0209 18.083V18.083Z" fill="#EAB806"/>
</g>
<g clip-path="url(#clip1)">
<path d="M45.3659 20.85C45.2879 21.294 45.7259 21.641 46.1119 21.443L50.5019 19.187L54.8909 21.443C55.2769 21.641 55.7149 21.294 55.6369 20.851L54.8069 16.121L58.3299 12.765C58.6589 12.451 58.4879 11.877 58.0469 11.815L53.1489 11.119L50.9649 6.79198C50.9233 6.70427 50.8576 6.63017 50.7756 6.57828C50.6935 6.52639 50.5984 6.49884 50.5014 6.49884C50.4043 6.49884 50.3092 6.52639 50.2272 6.57828C50.1451 6.63017 50.0795 6.70427 50.0379 6.79198L47.8539 11.12L42.9559 11.816C42.5149 11.878 42.3439 12.452 42.6729 12.766L46.1959 16.122L45.3659 20.852V20.85ZM50.2709 18.083L46.5849 19.977L47.2789 16.02C47.2951 15.9289 47.2888 15.8352 47.2603 15.7472C47.2319 15.6591 47.1823 15.5794 47.1159 15.515L44.2099 12.745L48.2619 12.169C48.3458 12.1563 48.4254 12.1235 48.4938 12.0733C48.5622 12.0232 48.6175 11.9572 48.6549 11.881L50.5019 8.22298L52.3479 11.881C52.3852 11.9572 52.4405 12.0232 52.5089 12.0733C52.5774 12.1235 52.657 12.1563 52.7409 12.169L56.7929 12.744L53.8869 15.514C53.8202 15.5784 53.7704 15.6583 53.742 15.7466C53.7136 15.8348 53.7074 15.9287 53.7239 16.02L54.4179 19.977L50.7319 18.083C50.6606 18.0462 50.5816 18.0271 50.5014 18.0271C50.4212 18.0271 50.3421 18.0462 50.2709 18.083V18.083Z" fill="#EAB806"/>
</g>
<g clip-path="url(#clip2)">
<path d="M63.6156 20.85C63.5376 21.294 63.9756 21.641 64.3616 21.443L68.7516 19.187L73.1406 21.443C73.5266 21.641 73.9646 21.294 73.8866 20.851L73.0566 16.121L76.5796 12.765C76.9086 12.451 76.7376 11.877 76.2966 11.815L71.3986 11.119L69.2146 6.79198C69.173 6.70427 69.1074 6.63017 69.0253 6.57828C68.9433 6.52639 68.8482 6.49884 68.7511 6.49884C68.654 6.49884 68.559 6.52639 68.4769 6.57828C68.3949 6.63017 68.3292 6.70427 68.2876 6.79198L66.1036 11.12L61.2056 11.816C60.7646 11.878 60.5936 12.452 60.9226 12.766L64.4456 16.122L63.6156 20.852V20.85ZM68.5206 18.083L64.8346 19.977L65.5286 16.02C65.5449 15.9289 65.5385 15.8352 65.5101 15.7472C65.4817 15.6591 65.4321 15.5794 65.3656 15.515L62.4596 12.745L66.5116 12.169C66.5955 12.1563 66.6751 12.1235 66.7436 12.0733C66.812 12.0232 66.8673 11.9572 66.9046 11.881L68.7516 8.22298L70.5976 11.881C70.635 11.9572 70.6902 12.0232 70.7587 12.0733C70.8271 12.1235 70.9067 12.1563 70.9906 12.169L75.0426 12.744L72.1366 15.514C72.07 15.5784 72.0202 15.6583 71.9918 15.7466C71.9633 15.8348 71.9571 15.9287 71.9736 16.02L72.6676 19.977L68.9816 18.083C68.9104 18.0462 68.8313 18.0271 68.7511 18.0271C68.6709 18.0271 68.5919 18.0462 68.5206 18.083V18.083Z" fill="#EAB806"/>
</g>
<g clip-path="url(#clip3)">
<path d="M81.8656 20.85C81.7876 21.294 82.2256 21.641 82.6116 21.443L87.0016 19.187L91.3906 21.443C91.7766 21.641 92.2146 21.294 92.1366 20.851L91.3066 16.121L94.8296 12.765C95.1586 12.451 94.9876 11.877 94.5466 11.815L89.6486 11.119L87.4646 6.79198C87.423 6.70427 87.3574 6.63017 87.2753 6.57828C87.1933 6.52639 87.0982 6.49884 87.0011 6.49884C86.904 6.49884 86.809 6.52639 86.7269 6.57828C86.6449 6.63017 86.5792 6.70427 86.5376 6.79198L84.3536 11.12L79.4556 11.816C79.0146 11.878 78.8436 12.452 79.1726 12.766L82.6956 16.122L81.8656 20.852V20.85ZM86.7706 18.083L83.0846 19.977L83.7786 16.02C83.7949 15.9289 83.7885 15.8352 83.7601 15.7472C83.7317 15.6591 83.6821 15.5794 83.6156 15.515L80.7096 12.745L84.7616 12.169C84.8455 12.1563 84.9251 12.1235 84.9936 12.0733C85.062 12.0232 85.1173 11.9572 85.1546 11.881L87.0016 8.22298L88.8476 11.881C88.885 11.9572 88.9402 12.0232 89.0087 12.0733C89.0771 12.1235 89.1567 12.1563 89.2406 12.169L93.2926 12.744L90.3866 15.514C90.32 15.5784 90.2702 15.6583 90.2418 15.7466C90.2133 15.8348 90.2071 15.9287 90.2236 16.02L90.9176 19.977L87.2316 18.083C87.1604 18.0462 87.0813 18.0271 87.0011 18.0271C86.9209 18.0271 86.8419 18.0462 86.7706 18.083V18.083Z" fill="#EAB806"/>
</g>
<defs>
<clipPath id="clip0">
<rect width="16" height="16" fill="white" transform="translate(24.2502 6)"/>
</clipPath>
<clipPath id="clip1">
<rect width="16" height="16" fill="white" transform="translate(42.5002 6)"/>
</clipPath>
<clipPath id="clip2">
<rect width="16" height="16" fill="white" transform="translate(60.75 6)"/>
</clipPath>
<clipPath id="clip3">
<rect width="16" height="16" fill="white" transform="translate(79 6)"/>
</clipPath>
</defs>
</svg>
