<svg width="101" height="28" viewBox="0 0 101 28" fill="none" xmlns="http://www.w3.org/2000/svg">
<path d="M9.61065 20.9435C9.22465 21.1415 8.78665 20.7945 8.86465 20.3515L9.69465 15.6215L6.17165 12.2655C5.84265 11.9515 6.01365 11.3775 6.45465 11.3155L11.3527 10.6195L13.5367 6.2925C13.7337 5.9025 14.2667 5.9025 14.4637 6.2925L16.6476 10.6195L21.5456 11.3155C21.9866 11.3775 22.1576 11.9515 21.8286 12.2655L18.3056 15.6215L19.1356 20.3515C19.2136 20.7945 18.7756 21.1415 18.3896 20.9435L13.9987 18.6875L9.61065 20.9435Z" fill="#EAB806"/>
<path d="M27.8608 20.9435C27.4748 21.1415 27.0368 20.7945 27.1148 20.3515L27.9448 15.6215L24.4218 12.2655C24.0928 11.9515 24.2638 11.3775 24.7048 11.3155L29.6028 10.6195L31.7868 6.2925C31.9838 5.9025 32.5168 5.9025 32.7138 6.2925L34.8978 10.6195L39.7958 11.3155C40.2368 11.3775 40.4078 11.9515 40.0788 12.2655L36.5558 15.6215L37.3858 20.3515C37.4638 20.7945 37.0258 21.1415 36.6398 20.9435L32.2488 18.6875L27.8608 20.9435Z" fill="#EAB806"/>
<path d="M46.1108 20.9435C45.7248 21.1415 45.2868 20.7945 45.3648 20.3515L46.1948 15.6215L42.6718 12.2655C42.3428 11.9515 42.5138 11.3775 42.9548 11.3155L47.8528 10.6195L50.0368 6.2925C50.2338 5.9025 50.7668 5.9025 50.9638 6.2925L53.1478 10.6195L58.0458 11.3155C58.4868 11.3775 58.6578 11.9515 58.3288 12.2655L54.8058 15.6215L55.6358 20.3515C55.7138 20.7945 55.2758 21.1415 54.8898 20.9435L50.4988 18.6875L46.1108 20.9435Z" fill="#EAB806"/>
<g clip-path="url(#clip0)">
<path d="M63.6159 20.85C63.5379 21.294 63.9759 21.641 64.3619 21.443L68.7519 19.187L73.1409 21.443C73.5269 21.641 73.9649 21.294 73.8869 20.851L73.0569 16.121L76.5799 12.765C76.9089 12.451 76.7379 11.877 76.2969 11.815L71.3989 11.119L69.2149 6.79198C69.1733 6.70427 69.1076 6.63017 69.0256 6.57828C68.9435 6.52639 68.8484 6.49884 68.7514 6.49884C68.6543 6.49884 68.5592 6.52639 68.4772 6.57828C68.3951 6.63017 68.3295 6.70427 68.2879 6.79198L66.1039 11.12L61.2059 11.816C60.7649 11.878 60.5939 12.452 60.9229 12.766L64.4459 16.122L63.6159 20.852V20.85ZM68.5209 18.083L64.8349 19.977L65.5289 16.02C65.5451 15.9289 65.5388 15.8352 65.5103 15.7472C65.4819 15.6591 65.4323 15.5794 65.3659 15.515L62.4599 12.745L66.5119 12.169C66.5958 12.1563 66.6754 12.1235 66.7438 12.0733C66.8122 12.0232 66.8675 11.9572 66.9049 11.881L68.7519 8.22298L70.5979 11.881C70.6352 11.9572 70.6905 12.0232 70.7589 12.0733C70.8274 12.1235 70.907 12.1563 70.9909 12.169L75.0429 12.744L72.1369 15.514C72.0702 15.5784 72.0204 15.6583 71.992 15.7466C71.9636 15.8348 71.9574 15.9287 71.9739 16.02L72.6679 19.977L68.9819 18.083C68.9106 18.0462 68.8316 18.0271 68.7514 18.0271C68.6712 18.0271 68.5921 18.0462 68.5209 18.083V18.083Z" fill="#EAB806"/>
</g>
<g clip-path="url(#clip1)">
<path d="M81.8656 20.85C81.7876 21.294 82.2256 21.641 82.6116 21.443L87.0016 19.187L91.3906 21.443C91.7766 21.641 92.2146 21.294 92.1366 20.851L91.3066 16.121L94.8296 12.765C95.1586 12.451 94.9876 11.877 94.5466 11.815L89.6486 11.119L87.4646 6.79198C87.423 6.70427 87.3574 6.63017 87.2753 6.57828C87.1933 6.52639 87.0982 6.49884 87.0011 6.49884C86.904 6.49884 86.809 6.52639 86.7269 6.57828C86.6449 6.63017 86.5792 6.70427 86.5376 6.79198L84.3536 11.12L79.4556 11.816C79.0146 11.878 78.8436 12.452 79.1726 12.766L82.6956 16.122L81.8656 20.852V20.85ZM86.7706 18.083L83.0846 19.977L83.7786 16.02C83.7949 15.9289 83.7885 15.8352 83.7601 15.7472C83.7317 15.6591 83.6821 15.5794 83.6156 15.515L80.7096 12.745L84.7616 12.169C84.8455 12.1563 84.9251 12.1235 84.9936 12.0733C85.062 12.0232 85.1173 11.9572 85.1546 11.881L87.0016 8.22298L88.8476 11.881C88.885 11.9572 88.9402 12.0232 89.0087 12.0733C89.0771 12.1235 89.1567 12.1563 89.2406 12.169L93.2926 12.744L90.3866 15.514C90.32 15.5784 90.2702 15.6583 90.2418 15.7466C90.2133 15.8348 90.2071 15.9287 90.2236 16.02L90.9176 19.977L87.2316 18.083C87.1604 18.0462 87.0813 18.0271 87.0011 18.0271C86.9209 18.0271 86.8419 18.0462 86.7706 18.083V18.083Z" fill="#EAB806"/>
</g>
<defs>
<clipPath id="clip0">
<rect width="16" height="16" fill="white" transform="translate(60.7502 6)"/>
</clipPath>
<clipPath id="clip1">
<rect width="16" height="16" fill="white" transform="translate(79 6)"/>
</clipPath>
</defs>
</svg>
