<svg width="101" height="28" viewBox="0 0 101 28" fill="none" xmlns="http://www.w3.org/2000/svg">
<path d="M9.61065 20.9435C9.22465 21.1415 8.78665 20.7945 8.86465 20.3515L9.69465 15.6215L6.17165 12.2655C5.84265 11.9515 6.01365 11.3775 6.45465 11.3155L11.3527 10.6195L13.5367 6.2925C13.7337 5.9025 14.2667 5.9025 14.4637 6.2925L16.6476 10.6195L21.5456 11.3155C21.9866 11.3775 22.1576 11.9515 21.8286 12.2655L18.3056 15.6215L19.1356 20.3515C19.2136 20.7945 18.7756 21.1415 18.3896 20.9435L13.9987 18.6875L9.61065 20.9435Z" fill="#EAB806"/>
<path d="M27.8607 20.9435C27.4747 21.1415 27.0367 20.7945 27.1147 20.3515L27.9447 15.6215L24.4217 12.2655C24.0927 11.9515 24.2637 11.3775 24.7047 11.3155L29.6027 10.6195L31.7867 6.2925C31.9837 5.9025 32.5167 5.9025 32.7137 6.2925L34.8976 10.6195L39.7956 11.3155C40.2366 11.3775 40.4076 11.9515 40.0786 12.2655L36.5556 15.6215L37.3856 20.3515C37.4636 20.7945 37.0256 21.1415 36.6396 20.9435L32.2487 18.6875L27.8607 20.9435Z" fill="#EAB806"/>
<path d="M46.1107 20.9435C45.7247 21.1415 45.2867 20.7945 45.3647 20.3515L46.1947 15.6215L42.6717 12.2655C42.3427 11.9515 42.5137 11.3775 42.9547 11.3155L47.8527 10.6195L50.0367 6.2925C50.2337 5.9025 50.7667 5.9025 50.9637 6.2925L53.1476 10.6195L58.0456 11.3155C58.4866 11.3775 58.6576 11.9515 58.3286 12.2655L54.8056 15.6215L55.6356 20.3515C55.7136 20.7945 55.2756 21.1415 54.8896 20.9435L50.4987 18.6875L46.1107 20.9435Z" fill="#EAB806"/>
<path d="M64.3607 20.9435C63.9747 21.1415 63.5367 20.7945 63.6147 20.3515L64.4447 15.6215L60.9217 12.2655C60.5927 11.9515 60.7637 11.3775 61.2047 11.3155L66.1027 10.6195L68.2867 6.2925C68.4837 5.9025 69.0167 5.9025 69.2137 6.2925L71.3976 10.6195L76.2956 11.3155C76.7366 11.3775 76.9076 11.9515 76.5786 12.2655L73.0556 15.6215L73.8856 20.3515C73.9636 20.7945 73.5256 21.1415 73.1396 20.9435L68.7487 18.6875L64.3607 20.9435Z" fill="#EAB806"/>
<g clip-path="url(#clip0)">
<path d="M81.8656 20.85C81.7876 21.294 82.2256 21.641 82.6116 21.443L87.0016 19.187L91.3906 21.443C91.7766 21.641 92.2146 21.294 92.1366 20.851L91.3066 16.121L94.8296 12.765C95.1586 12.451 94.9876 11.877 94.5466 11.815L89.6486 11.119L87.4646 6.79198C87.423 6.70427 87.3574 6.63017 87.2753 6.57828C87.1933 6.52639 87.0982 6.49884 87.0011 6.49884C86.904 6.49884 86.809 6.52639 86.7269 6.57828C86.6449 6.63017 86.5792 6.70427 86.5376 6.79198L84.3536 11.12L79.4556 11.816C79.0146 11.878 78.8436 12.452 79.1726 12.766L82.6956 16.122L81.8656 20.852V20.85ZM86.7706 18.083L83.0846 19.977L83.7786 16.02C83.7949 15.9289 83.7885 15.8352 83.7601 15.7472C83.7317 15.6591 83.6821 15.5794 83.6156 15.515L80.7096 12.745L84.7616 12.169C84.8455 12.1563 84.9251 12.1235 84.9936 12.0733C85.062 12.0232 85.1173 11.9572 85.1546 11.881L87.0016 8.22298L88.8476 11.881C88.885 11.9572 88.9402 12.0232 89.0087 12.0733C89.0771 12.1235 89.1567 12.1563 89.2406 12.169L93.2926 12.744L90.3866 15.514C90.32 15.5784 90.2702 15.6583 90.2418 15.7466C90.2133 15.8348 90.2071 15.9287 90.2236 16.02L90.9176 19.977L87.2316 18.083C87.1604 18.0462 87.0813 18.0271 87.0011 18.0271C86.9209 18.0271 86.8419 18.0462 86.7706 18.083V18.083Z" fill="#EAB806"/>
</g>
<defs>
<clipPath id="clip0">
<rect width="16" height="16" fill="white" transform="translate(79 6)"/>
</clipPath>
</defs>
</svg>
