<svg width="101" height="28" viewBox="0 0 101 28" fill="none" xmlns="http://www.w3.org/2000/svg">
<g clip-path="url(#clip0)">
<path d="M9.61163 21.443C9.22563 21.641 8.78763 21.294 8.86563 20.851L9.69563 16.121L6.17263 12.765C5.84363 12.451 6.01463 11.877 6.45563 11.815L11.3536 11.119L13.5376 6.79201C13.7346 6.40201 14.2676 6.40201 14.4646 6.79201L16.6486 11.119L21.5466 11.815C21.9876 11.877 22.1586 12.451 21.8296 12.765L18.3066 16.121L19.1366 20.851C19.2146 21.294 18.7766 21.641 18.3906 21.443L13.9996 19.187L9.61063 21.443H9.61163Z" fill="#EAB806"/>
</g>
<g clip-path="url(#clip1)">
<path d="M27.8616 21.443C27.4756 21.641 27.0376 21.294 27.1156 20.851L27.9456 16.121L24.4226 12.765C24.0936 12.451 24.2646 11.877 24.7056 11.815L29.6036 11.119L31.7876 6.79201C31.9846 6.40201 32.5176 6.40201 32.7146 6.79201L34.8986 11.119L39.7966 11.815C40.2376 11.877 40.4086 12.451 40.0796 12.765L36.5566 16.121L37.3866 20.851C37.4646 21.294 37.0266 21.641 36.6406 21.443L32.2496 19.187L27.8606 21.443H27.8616Z" fill="#EAB806"/>
</g>
<g clip-path="url(#clip2)">
<path d="M46.1116 21.443C45.7256 21.641 45.2876 21.294 45.3656 20.851L46.1956 16.121L42.6726 12.765C42.3436 12.451 42.5146 11.877 42.9556 11.815L47.8536 11.119L50.0376 6.79201C50.2346 6.40201 50.7676 6.40201 50.9646 6.79201L53.1486 11.119L58.0466 11.815C58.4876 11.877 58.6586 12.451 58.3296 12.765L54.8066 16.121L55.6366 20.851C55.7146 21.294 55.2766 21.641 54.8906 21.443L50.4996 19.187L46.1106 21.443H46.1116Z" fill="#EAB806"/>
</g>
<g clip-path="url(#clip3)">
<path d="M64.3616 21.443C63.9756 21.641 63.5376 21.294 63.6156 20.851L64.4456 16.121L60.9226 12.765C60.5936 12.451 60.7646 11.877 61.2056 11.815L66.1036 11.119L68.2876 6.79201C68.4846 6.40201 69.0176 6.40201 69.2146 6.79201L71.3986 11.119L76.2966 11.815C76.7376 11.877 76.9086 12.451 76.5796 12.765L73.0566 16.121L73.8866 20.851C73.9646 21.294 73.5266 21.641 73.1406 21.443L68.7496 19.187L64.3606 21.443H64.3616Z" fill="#EAB806"/>
</g>
<g clip-path="url(#clip4)">
<path d="M81.8656 20.85C81.7876 21.294 82.2256 21.641 82.6116 21.443L87.0016 19.187L91.3906 21.443C91.7766 21.641 92.2146 21.294 92.1366 20.851L91.3066 16.121L94.8296 12.765C95.1586 12.451 94.9876 11.877 94.5466 11.815L89.6486 11.119L87.4646 6.79198C87.423 6.70427 87.3574 6.63017 87.2753 6.57828C87.1933 6.52639 87.0982 6.49884 87.0011 6.49884C86.904 6.49884 86.809 6.52639 86.7269 6.57828C86.6449 6.63017 86.5792 6.70427 86.5376 6.79198L84.3536 11.12L79.4556 11.816C79.0146 11.878 78.8436 12.452 79.1726 12.766L82.6956 16.122L81.8656 20.852V20.85ZM86.7706 18.083L83.0846 19.977L83.7786 16.02C83.7949 15.9289 83.7885 15.8352 83.7601 15.7472C83.7317 15.6591 83.6821 15.5794 83.6156 15.515L80.7096 12.745L84.7616 12.169C84.8455 12.1563 84.9251 12.1235 84.9936 12.0733C85.062 12.0232 85.1173 11.9572 85.1546 11.881L87.0016 8.22298L88.8476 11.881C88.885 11.9572 88.9402 12.0232 89.0087 12.0733C89.0771 12.1235 89.1567 12.1563 89.2406 12.169L93.2926 12.744L90.3866 15.514C90.32 15.5784 90.2702 15.6583 90.2418 15.7466C90.2133 15.8348 90.2071 15.9287 90.2236 16.02L90.9176 19.977L87.2316 18.083C87.1604 18.0462 87.0813 18.0271 87.0011 18.0271C86.9209 18.0271 86.8419 18.0462 86.7706 18.083V18.083Z" fill="#EAB806"/>
</g>
<defs>
<clipPath id="clip0">
<rect width="16" height="16" fill="white" transform="translate(6 6)"/>
</clipPath>
<clipPath id="clip1">
<rect width="16" height="16" fill="white" transform="translate(24.25 6)"/>
</clipPath>
<clipPath id="clip2">
<rect width="16" height="16" fill="white" transform="translate(42.5 6)"/>
</clipPath>
<clipPath id="clip3">
<rect width="16" height="16" fill="white" transform="translate(60.75 6)"/>
</clipPath>
<clipPath id="clip4">
<rect width="16" height="16" fill="white" transform="translate(79 6)"/>
</clipPath>
</defs>
</svg>
