<svg width="101" height="28" viewBox="0 0 101 28" fill="none" xmlns="http://www.w3.org/2000/svg">
<g clip-path="url(#clip0)">
<path d="M9.61163 21.443C9.22563 21.641 8.78763 21.294 8.86563 20.851L9.69563 16.121L6.17263 12.765C5.84363 12.451 6.01463 11.877 6.45563 11.815L11.3536 11.119L13.5376 6.79201C13.7346 6.40201 14.2676 6.40201 14.4646 6.79201L16.6486 11.119L21.5466 11.815C21.9876 11.877 22.1586 12.451 21.8296 12.765L18.3066 16.121L19.1366 20.851C19.2146 21.294 18.7766 21.641 18.3906 21.443L13.9996 19.187L9.61063 21.443H9.61163Z" fill="#EAB806"/>
</g>
<g clip-path="url(#clip1)">
<path d="M27.8615 21.443C27.4755 21.641 27.0375 21.294 27.1155 20.851L27.9455 16.121L24.4225 12.765C24.0935 12.451 24.2645 11.877 24.7055 11.815L29.6035 11.119L31.7875 6.79201C31.9845 6.40201 32.5175 6.40201 32.7145 6.79201L34.8985 11.119L39.7965 11.815C40.2375 11.877 40.4085 12.451 40.0795 12.765L36.5565 16.121L37.3865 20.851C37.4645 21.294 37.0265 21.641 36.6405 21.443L32.2495 19.187L27.8605 21.443H27.8615Z" fill="#EAB806"/>
</g>
<g clip-path="url(#clip2)">
<path d="M46.1114 21.443C45.7254 21.641 45.2874 21.294 45.3654 20.851L46.1954 16.121L42.6724 12.765C42.3434 12.451 42.5144 11.877 42.9554 11.815L47.8534 11.119L50.0374 6.79201C50.2344 6.40201 50.7674 6.40201 50.9644 6.79201L53.1484 11.119L58.0464 11.815C58.4874 11.877 58.6584 12.451 58.3294 12.765L54.8064 16.121L55.6364 20.851C55.7144 21.294 55.2764 21.641 54.8904 21.443L50.4994 19.187L46.1104 21.443H46.1114Z" fill="#EAB806"/>
</g>
<path d="M64.3602 20.9435C63.9742 21.1415 63.5362 20.7945 63.6142 20.3515L64.4442 15.6215L60.9212 12.2655C60.5922 11.9515 60.7632 11.3775 61.2042 11.3155L66.1022 10.6195L68.2862 6.2925C68.4832 5.9025 69.0162 5.9025 69.2132 6.2925L71.3972 10.6195L76.2952 11.3155C76.7362 11.3775 76.9072 11.9515 76.5782 12.2655L73.0552 15.6215L73.8852 20.3515C73.9632 20.7945 73.5252 21.1415 73.1392 20.9435L68.7482 18.6875L64.3602 20.9435Z" fill="#EAB806"/>
<path d="M82.6104 20.9435C82.2244 21.1415 81.7864 20.7945 81.8644 20.3515L82.6944 15.6215L79.1714 12.2655C78.8424 11.9515 79.0134 11.3775 79.4544 11.3155L84.3524 10.6195L86.5364 6.2925C86.7334 5.9025 87.2664 5.9025 87.4634 6.2925L89.6474 10.6195L94.5454 11.3155C94.9864 11.3775 95.1574 11.9515 94.8284 12.2655L91.3054 15.6215L92.1354 20.3515C92.2134 20.7945 91.7754 21.1415 91.3894 20.9435L86.9984 18.6875L82.6104 20.9435Z" fill="#EAB806"/>
<defs>
<clipPath id="clip0">
<rect width="16" height="16" fill="white" transform="translate(6 6)"/>
</clipPath>
<clipPath id="clip1">
<rect width="16" height="16" fill="white" transform="translate(24.2499 6)"/>
</clipPath>
<clipPath id="clip2">
<rect width="16" height="16" fill="white" transform="translate(42.4998 6)"/>
</clipPath>
</defs>
</svg>
