<svg width="256" height="256" viewBox="0 0 256 256" fill="none" xmlns="http://www.w3.org/2000/svg">
<path d="M128 80C128 80.071 127.995 80.141 127.995 80.212L127.991 80.359C127.895 90.573 124.252 100.436 117.687 108.261C111.122 116.087 102.042 121.388 92 123.258V224C92 226.122 91.1571 228.157 89.6569 229.657C88.1566 231.157 86.1217 232 84 232C81.8783 232 79.8434 231.157 78.3431 229.657C76.8429 228.157 76 226.122 76 224V123.258C65.9582 121.388 56.8782 116.086 50.3133 108.261C43.7483 100.435 40.1062 90.5721 40.01 80.358C40.007 80.31 40.007 80.261 40.005 80.212C40.005 80.142 40 80.072 40 80C40 79.924 40.01 79.85 40.011 79.775C40.016 79.631 40.021 79.486 40.033 79.341C40.045 79.195 40.063 79.051 40.083 78.907C40.093 78.833 40.097 78.759 40.109 78.685L48.109 30.685C48.2754 29.6431 48.6463 28.6444 49.2003 27.7465C49.7543 26.8485 50.4804 26.069 51.3369 25.4528C52.1934 24.8367 53.1634 24.396 54.1908 24.1562C55.2183 23.9165 56.2831 23.8823 57.3239 24.0558C58.3646 24.2292 59.3608 24.6068 60.255 25.1668C61.1492 25.7268 61.9238 26.4582 62.5342 27.3188C63.1446 28.1794 63.5787 29.1523 63.8116 30.1814C64.0444 31.2105 64.0714 32.2754 63.891 33.315L57.444 72H76V32C76 29.8783 76.8429 27.8434 78.3431 26.3431C79.8434 24.8428 81.8783 24 84 24C86.1217 24 88.1566 24.8428 89.6569 26.3431C91.1571 27.8434 92 29.8783 92 32V72H110.556L104.109 33.315C103.929 32.2754 103.956 31.2105 104.188 30.1814C104.421 29.1523 104.855 28.1794 105.466 27.3188C106.076 26.4582 106.851 25.7268 107.745 25.1668C108.639 24.6068 109.635 24.2292 110.676 24.0558C111.717 23.8823 112.782 23.9165 113.809 24.1562C114.837 24.396 115.807 24.8367 116.663 25.4528C117.52 26.069 118.246 26.8485 118.8 27.7465C119.354 28.6444 119.725 29.6431 119.891 30.685L127.891 78.685C127.903 78.759 127.906 78.833 127.917 78.907C127.937 79.051 127.955 79.195 127.967 79.341C127.979 79.486 127.984 79.631 127.989 79.775C127.991 79.851 128 79.925 128 80V80ZM211.993 31.858C211.989 31.5805 211.969 31.3034 211.935 31.028C211.866 30.4742 211.741 29.9289 211.56 29.401C211.544 29.356 211.535 29.311 211.519 29.266C211.501 29.218 211.478 29.173 211.459 29.125C211.399 28.9683 211.334 28.8143 211.264 28.663C211.219 28.5643 211.172 28.467 211.124 28.371C211.057 28.2423 210.988 28.1157 210.915 27.991C210.851 27.8794 210.784 27.7694 210.715 27.661C210.649 27.5598 210.58 27.4602 210.51 27.362C210.426 27.2431 210.339 27.1267 210.249 27.013C210.183 26.93 210.113 26.849 210.044 26.769C209.945 26.6534 209.842 26.5407 209.736 26.431C209.662 26.354 209.585 26.281 209.508 26.208C209.402 26.1063 209.293 26.0076 209.182 25.912C209.092 25.835 208.999 25.762 208.906 25.69C208.802 25.6082 208.696 25.5288 208.588 25.452C208.477 25.3751 208.363 25.301 208.248 25.23C208.151 25.169 208.054 25.107 207.954 25.05C207.823 24.9766 207.69 24.9069 207.555 24.841C207.463 24.795 207.371 24.75 207.277 24.707C207.135 24.6439 206.991 24.5849 206.845 24.53C206.749 24.494 206.652 24.457 206.554 24.424C206.414 24.3769 206.272 24.3339 206.129 24.295C206.015 24.2633 205.901 24.2339 205.786 24.207C205.412 24.123 205.032 24.0648 204.65 24.033C204.487 24.0197 204.322 24.0113 204.156 24.008C204.104 24.007 204.053 24 204 24C203.952 24 203.904 24.006 203.856 24.007C203.439 24.0143 203.024 24.0545 202.614 24.127C202.202 24.1979 201.796 24.3026 201.401 24.44C201.356 24.456 201.311 24.465 201.266 24.481C201.167 24.518 201.07 24.561 200.972 24.597C200.935 24.612 200.897 24.625 200.86 24.641C180.25 32.387 163.745 57.671 151.803 99.819C146.386 119.268 142.455 139.102 140.046 159.147C139.926 160.263 140.043 161.392 140.388 162.46C140.733 163.528 141.299 164.512 142.049 165.347C142.8 166.182 143.717 166.849 144.742 167.307C145.768 167.764 146.878 168 148 168H196V224C196 226.122 196.843 228.157 198.343 229.657C199.843 231.157 201.878 232 204 232C206.122 232 208.157 231.157 209.657 229.657C211.157 228.157 212 226.122 212 224V32C212 31.952 211.994 31.906 211.993 31.858V31.858Z" fill="white"/>
</svg>
