<svg width="100" height="100" viewBox="0 0 100 100" fill="none" xmlns="http://www.w3.org/2000/svg">
<g filter="url(#filter0_d)">
<path d="M88.5001 26.12C85.6169 27.3973 82.5586 28.2352 79.4271 28.606C82.7255 26.6324 85.1939 23.5268 86.3721 19.868C83.2717 21.7085 79.879 23.0046 76.3411 23.7C74.8629 22.1234 73.0768 20.8672 71.0933 20.0092C69.1098 19.1512 66.9712 18.7097 64.8101 18.712C56.0861 18.712 49.0121 25.784 49.0121 34.51C49.0121 35.747 49.1521 36.954 49.4221 38.111C36.2921 37.452 24.6521 31.162 16.8601 21.603C15.4551 24.0141 14.7169 26.7555 14.7211 29.546C14.719 32.147 15.3595 34.7083 16.5855 37.0022C17.8116 39.2961 19.5853 41.2516 21.7491 42.695C19.2408 42.6153 16.7878 41.9379 14.5941 40.719C14.5921 40.785 14.5921 40.85 14.5921 40.918C14.5921 48.57 20.0371 54.955 27.2631 56.408C24.9363 57.0379 22.4968 57.1302 20.1291 56.678C22.1391 62.953 27.9731 67.522 34.8861 67.65C29.29 72.0416 22.3796 74.4236 15.2661 74.413C13.9911 74.413 12.7341 74.339 11.4971 74.192C18.7204 78.8332 27.1272 81.2966 35.7131 81.288C64.7711 81.288 80.6611 57.217 80.6611 36.343C80.6611 35.659 80.6451 34.976 80.6151 34.297C83.7096 32.0629 86.3799 29.2937 88.5001 26.12Z" fill="#EAB806"/>
</g>
<defs>
<filter id="filter0_d" x="7.49707" y="17.712" width="85.003" height="70.576" filterUnits="userSpaceOnUse" color-interpolation-filters="sRGB">
<feFlood flood-opacity="0" result="BackgroundImageFix"/>
<feColorMatrix in="SourceAlpha" type="matrix" values="0 0 0 0 0 0 0 0 0 0 0 0 0 0 0 0 0 0 127 0"/>
<feOffset dy="3"/>
<feGaussianBlur stdDeviation="2"/>
<feColorMatrix type="matrix" values="0 0 0 0 0 0 0 0 0 0 0 0 0 0 0 0 0 0 0.1 0"/>
<feBlend mode="normal" in2="BackgroundImageFix" result="effect1_dropShadow"/>
<feBlend mode="normal" in="SourceGraphic" in2="effect1_dropShadow" result="shape"/>
</filter>
</defs>
</svg>
