<svg width="164" height="42" viewBox="0 0 164 42" fill="none" xmlns="http://www.w3.org/2000/svg">
<g filter="url(#filter0_d)">
<rect x="4" y="7.22562" width="135.188" height="25.2897" rx="3" fill="#FAFAFA"/>
</g>
<path d="M14.3723 24V23.808L15.1643 23.412V17.868L14.3723 17.472V17.28H17.7803V17.472L16.9163 17.868V23.412L17.7803 23.808V24H14.3723ZM18.8243 24V23.796L19.7123 23.4V17.868L18.8243 17.472V17.28H20.9963L24.9923 21.72V17.868L23.8283 17.472V17.28H26.6003V17.472L25.7243 17.868V24.048H24.8723L20.4443 19.164V23.388L21.6083 23.796V24H18.8243ZM31.4897 24.12C30.7537 24.12 30.0977 23.976 29.5217 23.688C28.9537 23.4 28.5057 23.004 28.1777 22.5C27.8577 21.996 27.6977 21.424 27.6977 20.784C27.6977 20.24 27.8057 19.744 28.0217 19.296C28.2377 18.848 28.5297 18.464 28.8977 18.144C29.2737 17.824 29.6977 17.58 30.1697 17.412C30.6497 17.236 31.1457 17.148 31.6577 17.148C32.0257 17.148 32.3297 17.172 32.5697 17.22C32.8177 17.26 33.0337 17.316 33.2177 17.388C33.4097 17.46 33.6057 17.544 33.8057 17.64L33.9137 19.5H33.7097L32.7377 18.024C32.4577 17.848 32.1217 17.76 31.7297 17.76C31.3057 17.76 30.9257 17.884 30.5897 18.132C30.2537 18.38 29.9857 18.724 29.7857 19.164C29.5937 19.604 29.4977 20.12 29.4977 20.712C29.4977 21.592 29.7017 22.28 30.1097 22.776C30.5177 23.264 31.0537 23.508 31.7177 23.508C31.9097 23.508 32.0897 23.496 32.2577 23.472C32.4257 23.44 32.5897 23.384 32.7497 23.304L33.8057 21.876H33.9977L33.8657 23.58C33.5857 23.748 33.2417 23.88 32.8337 23.976C32.4337 24.072 31.9857 24.12 31.4897 24.12ZM39.032 24.12C38.328 24.12 37.704 23.968 37.16 23.664C36.624 23.36 36.2 22.948 35.888 22.428C35.576 21.9 35.42 21.3 35.42 20.628C35.42 19.964 35.576 19.368 35.888 18.84C36.2 18.312 36.624 17.896 37.16 17.592C37.704 17.288 38.328 17.136 39.032 17.136C39.736 17.136 40.36 17.288 40.904 17.592C41.448 17.896 41.876 18.312 42.188 18.84C42.5 19.368 42.656 19.964 42.656 20.628C42.656 21.3 42.5 21.9 42.188 22.428C41.876 22.948 41.448 23.36 40.904 23.664C40.36 23.968 39.736 24.12 39.032 24.12ZM39.2 23.496C39.712 23.496 40.112 23.256 40.4 22.776C40.696 22.296 40.844 21.68 40.844 20.928C40.844 20.312 40.76 19.768 40.592 19.296C40.432 18.816 40.204 18.44 39.908 18.168C39.62 17.896 39.288 17.76 38.912 17.76C38.576 17.76 38.28 17.868 38.024 18.084C37.776 18.3 37.58 18.6 37.436 18.984C37.3 19.368 37.232 19.812 37.232 20.316C37.232 20.932 37.316 21.48 37.484 21.96C37.652 22.44 37.884 22.816 38.18 23.088C38.476 23.36 38.816 23.496 39.2 23.496ZM43.7501 24V23.796L44.6381 23.4V17.868L43.7501 17.472V17.28H45.9221L49.9181 21.72V17.868L48.7541 17.472V17.28H51.5261V17.472L50.6501 17.868V24.048H49.7981L45.3701 19.164V23.388L46.5341 23.796V24H43.7501ZM53.8354 24V23.808L54.9394 23.412V17.892H53.4514L52.6474 19.548H52.4554V17.28H59.1754V19.548H58.9834L58.1674 17.892H56.6794V23.412L57.7954 23.808V24H53.8354ZM63.8055 24.12C63.1015 24.12 62.4775 23.968 61.9335 23.664C61.3975 23.36 60.9735 22.948 60.6615 22.428C60.3495 21.9 60.1935 21.3 60.1935 20.628C60.1935 19.964 60.3495 19.368 60.6615 18.84C60.9735 18.312 61.3975 17.896 61.9335 17.592C62.4775 17.288 63.1015 17.136 63.8055 17.136C64.5095 17.136 65.1335 17.288 65.6775 17.592C66.2215 17.896 66.6495 18.312 66.9615 18.84C67.2735 19.368 67.4295 19.964 67.4295 20.628C67.4295 21.3 67.2735 21.9 66.9615 22.428C66.6495 22.948 66.2215 23.36 65.6775 23.664C65.1335 23.968 64.5095 24.12 63.8055 24.12ZM63.9735 23.496C64.4855 23.496 64.8855 23.256 65.1735 22.776C65.4695 22.296 65.6175 21.68 65.6175 20.928C65.6175 20.312 65.5335 19.768 65.3655 19.296C65.2055 18.816 64.9775 18.44 64.6815 18.168C64.3935 17.896 64.0615 17.76 63.6855 17.76C63.3495 17.76 63.0535 17.868 62.7975 18.084C62.5495 18.3 62.3535 18.6 62.2095 18.984C62.0735 19.368 62.0055 19.812 62.0055 20.316C62.0055 20.932 62.0895 21.48 62.2575 21.96C62.4255 22.44 62.6575 22.816 62.9535 23.088C63.2495 23.36 63.5895 23.496 63.9735 23.496ZM72.5327 24.12C71.9247 24.12 71.3847 24.028 70.9127 23.844C70.4487 23.652 70.0807 23.34 69.8087 22.908C69.5367 22.468 69.4007 21.884 69.4007 21.156V17.88L68.5007 17.472V17.28H72.0527V17.472L71.1407 17.88V21.168C71.1407 21.712 71.2207 22.144 71.3807 22.464C71.5407 22.784 71.7607 23.012 72.0407 23.148C72.3287 23.276 72.6567 23.34 73.0247 23.34C73.3527 23.34 73.6527 23.276 73.9247 23.148C74.1967 23.02 74.4127 22.824 74.5727 22.56C74.7407 22.288 74.8247 21.932 74.8247 21.492V17.856L73.8527 17.472V17.28H76.4687V17.472L75.5687 17.868V21.276C75.5687 22.26 75.3047 22.98 74.7767 23.436C74.2487 23.892 73.5007 24.12 72.5327 24.12ZM77.5241 24V23.808L78.4121 23.412V17.868L77.5241 17.472V17.28H81.1961C81.9241 17.28 82.4961 17.428 82.9121 17.724C83.3361 18.012 83.5481 18.408 83.5481 18.912C83.5481 19.648 83.1001 20.172 82.2041 20.484L84.0521 23.424L84.8321 23.808V24H82.3481L80.6081 20.94H80.1641V23.4L80.9321 23.808V24H77.5241ZM80.5001 17.832H80.1641V20.376H80.5361C80.9601 20.376 81.2721 20.26 81.4721 20.028C81.6801 19.788 81.7841 19.472 81.7841 19.08C81.7841 18.248 81.3561 17.832 80.5001 17.832ZM85.2345 24V23.796L86.1225 23.4V17.868L85.2345 17.472V17.28H87.4065L91.4025 21.72V17.868L90.2385 17.472V17.28H93.0105V17.472L92.1345 17.868V24.048H91.2825L86.8545 19.164V23.388L88.0185 23.796V24H85.2345ZM93.4428 24V23.808L94.0548 23.46L96.7308 17.22H97.7508L100.379 23.388L101.123 23.808V24H97.7628V23.808L98.6148 23.448L97.9308 21.804H95.5068L94.8228 23.448L95.6748 23.808V24H93.4428ZM95.7588 21.192H97.6668L96.7068 18.9L95.7588 21.192ZM101.876 24V23.808L102.764 23.412V17.868L101.876 17.472V17.28H105.26C106.052 17.28 106.688 17.408 107.168 17.664C107.648 17.912 107.888 18.292 107.888 18.804C107.888 19.164 107.756 19.484 107.492 19.764C107.228 20.044 106.86 20.244 106.388 20.364C107.052 20.452 107.572 20.644 107.948 20.94C108.324 21.236 108.512 21.608 108.512 22.056C108.512 22.424 108.384 22.756 108.128 23.052C107.88 23.34 107.532 23.572 107.084 23.748C106.636 23.916 106.124 24 105.548 24H101.876ZM104.612 17.892H104.516V20.244H104.66C105.108 20.244 105.464 20.148 105.728 19.956C106 19.756 106.136 19.46 106.136 19.068C106.136 18.284 105.628 17.892 104.612 17.892ZM104.972 20.808H104.516V23.388H105.044C105.54 23.388 105.936 23.276 106.232 23.052C106.528 22.828 106.676 22.508 106.676 22.092C106.676 21.628 106.528 21.3 106.232 21.108C105.936 20.908 105.516 20.808 104.972 20.808ZM109.434 24V23.808L110.322 23.412V17.868L109.434 17.472V17.28H113.058V17.472L112.074 17.868V23.388H114.282L115.182 21.432H115.374V24H109.434ZM116.477 24V23.808L117.365 23.412V17.868L116.477 17.472V17.28H122.273V19.08H122.081L121.301 17.892H119.117V20.244H120.665L121.217 19.38H121.397V21.66H121.217L120.665 20.808H119.117V23.388H121.541L122.369 21.84H122.561V24H116.477Z" fill="#333333"/>
<rect x="136.014" y="3.51218" width="26.902" height="24.5854" fill="white"/>
<path fill-rule="evenodd" clip-rule="evenodd" d="M133.411 39.9777V5.15842C133.411 3.79032 133.948 2.47826 134.904 1.51087C135.86 0.543475 137.157 0 138.509 0L158.902 0C160.254 0 161.551 0.543475 162.507 1.51087C163.463 2.47826 164 3.79032 164 5.15842V39.9777C164 40.2017 163.943 40.4218 163.833 40.6165C163.724 40.8111 163.566 40.9735 163.376 41.0878C163.185 41.2021 162.969 41.2642 162.748 41.2681C162.526 41.272 162.308 41.2175 162.114 41.11L148.705 33.7077L135.297 41.11C135.103 41.2175 134.884 41.272 134.663 41.2681C134.442 41.2642 134.225 41.2021 134.035 41.0878C133.844 40.9735 133.687 40.8111 133.577 40.6165C133.468 40.4218 133.41 40.2017 133.411 39.9777ZM149.113 10.5748C149.076 10.4974 149.018 10.4322 148.946 10.3866C148.874 10.341 148.79 10.3168 148.705 10.3168C148.62 10.3168 148.537 10.341 148.465 10.3866C148.393 10.4322 148.335 10.4974 148.297 10.5748L146.681 13.889C146.649 13.9561 146.601 14.0141 146.541 14.0582C146.482 14.1022 146.413 14.1309 146.34 14.1418L142.72 14.6731C142.637 14.6859 142.558 14.7219 142.494 14.7772C142.43 14.8324 142.382 14.9046 142.356 14.9857C142.33 15.0669 142.327 15.1537 142.347 15.2365C142.367 15.3194 142.41 15.3949 142.47 15.4546L145.086 18.0364C145.193 18.1422 145.241 18.2943 145.216 18.4439L144.601 22.0909C144.587 22.1751 144.597 22.2616 144.629 22.3406C144.661 22.4196 144.714 22.4879 144.782 22.538C144.851 22.5881 144.932 22.618 145.016 22.6242C145.1 22.6304 145.184 22.6128 145.259 22.5732L148.496 20.8503C148.561 20.816 148.633 20.798 148.707 20.798C148.78 20.798 148.852 20.816 148.917 20.8503L152.154 22.5732C152.229 22.6121 152.313 22.6291 152.397 22.6226C152.48 22.616 152.561 22.5861 152.628 22.5361C152.696 22.4861 152.749 22.418 152.781 22.3394C152.813 22.2608 152.823 22.1748 152.809 22.0909L152.192 18.4413C152.179 18.3681 152.184 18.2927 152.206 18.2217C152.229 18.1507 152.268 18.0862 152.32 18.0338L154.94 15.452C155.001 15.3923 155.043 15.3168 155.063 15.234C155.083 15.1512 155.08 15.0643 155.054 14.9832C155.028 14.902 154.981 14.8298 154.916 14.7746C154.852 14.7194 154.774 14.6833 154.691 14.6705L151.071 14.1392C150.998 14.1283 150.929 14.0996 150.869 14.0556C150.81 14.0116 150.762 13.9535 150.729 13.8865L149.113 10.5748Z" fill="#EAB806"/>
<defs>
<filter id="filter0_d" x="0" y="4.22562" width="143.188" height="33.2897" filterUnits="userSpaceOnUse" color-interpolation-filters="sRGB">
<feFlood flood-opacity="0" result="BackgroundImageFix"/>
<feColorMatrix in="SourceAlpha" type="matrix" values="0 0 0 0 0 0 0 0 0 0 0 0 0 0 0 0 0 0 127 0"/>
<feOffset dy="1"/>
<feGaussianBlur stdDeviation="2"/>
<feColorMatrix type="matrix" values="0 0 0 0 0 0 0 0 0 0 0 0 0 0 0 0 0 0 0.1 0"/>
<feBlend mode="normal" in2="BackgroundImageFix" result="effect1_dropShadow"/>
<feBlend mode="normal" in="SourceGraphic" in2="effect1_dropShadow" result="shape"/>
</filter>
</defs>
</svg>
