<svg width="179" height="49" viewBox="0 0 179 49" fill="none" xmlns="http://www.w3.org/2000/svg">
<path d="M40.254 38.0273H34.4181L33.3048 42H29.8478L35.3087 24.832H40.3009L45.7501 42H41.379L40.254 38.0273ZM39.6095 35.6484L38.0275 30L37.4415 27.4219H37.2072L36.6329 30L35.0509 35.6484H39.6095ZM48.0939 29.5781H51.5275L52.0197 31.6172C52.2853 31.3828 52.5822 31.1328 52.9103 30.8672C53.2462 30.6016 53.6056 30.3555 53.9884 30.1289C54.379 29.9023 54.7931 29.7148 55.2306 29.5664C55.6681 29.418 56.1251 29.3438 56.6017 29.3438C57.1798 29.3438 57.7032 29.4492 58.172 29.6602C58.6486 29.8633 59.0548 30.1523 59.3907 30.5273C59.7345 30.9023 60.0001 31.3555 60.1876 31.8867C60.3751 32.4102 60.4689 32.9922 60.4689 33.6328V42H56.3907V34.2188C56.3907 33.8672 56.34 33.5586 56.2384 33.293C56.1447 33.0273 56.0118 32.8047 55.84 32.625C55.6759 32.4453 55.4806 32.3125 55.254 32.2266C55.0275 32.1328 54.7853 32.0859 54.5275 32.0859C54.0978 32.0859 53.6876 32.1914 53.297 32.4023C52.9142 32.6133 52.5353 32.8789 52.1603 33.1992V42H48.0939V29.5781ZM72.2345 32.2383C71.8673 32.082 71.5392 31.9805 71.2501 31.9336C70.9689 31.8867 70.7384 31.8633 70.5587 31.8633C70.0275 31.8633 69.5626 31.9727 69.1642 32.1914C68.7736 32.4102 68.4454 32.707 68.1798 33.082C67.922 33.4492 67.7267 33.8789 67.5939 34.3711C67.4689 34.8633 67.4064 35.3828 67.4064 35.9297C67.4064 36.4609 67.465 36.9453 67.5822 37.3828C67.6993 37.8203 67.8634 38.1992 68.0743 38.5195C68.2931 38.832 68.5509 39.0742 68.8478 39.2461C69.1447 39.418 69.4767 39.5039 69.8439 39.5039C70.2501 39.5039 70.6642 39.4023 71.0861 39.1992C71.5079 38.9883 71.8907 38.7031 72.2345 38.3438V32.2383ZM72.2345 23.2266H76.3126V42H72.8322L72.3751 40.0781C72.0861 40.3359 71.7814 40.5938 71.4611 40.8516C71.1486 41.1094 70.8126 41.3398 70.4532 41.543C70.1017 41.7461 69.7267 41.9102 69.3282 42.0352C68.9298 42.168 68.504 42.2344 68.0509 42.2344C67.3009 42.2344 66.629 42.0703 66.0353 41.7422C65.4415 41.4062 64.9337 40.9648 64.5118 40.418C64.0978 39.8633 63.7814 39.2344 63.5626 38.5312C63.3439 37.8281 63.2345 37.1016 63.2345 36.3516C63.2345 35.6953 63.3165 35.0664 63.4806 34.4648C63.6447 33.8633 63.879 33.3047 64.1837 32.7891C64.4884 32.2656 64.8517 31.793 65.2736 31.3711C65.7032 30.9492 66.1759 30.5898 66.6915 30.293C67.215 29.9883 67.7736 29.7539 68.3673 29.5898C68.9689 29.4258 69.5939 29.3438 70.2423 29.3438C70.6407 29.3438 71.0197 29.3711 71.379 29.4258C71.7384 29.4805 72.0236 29.5391 72.2345 29.6016V23.2266ZM89.0861 42H84.9493V24.832H91.1134C92.2462 24.832 93.2501 24.9609 94.1251 25.2188C95.0001 25.4688 95.7345 25.832 96.3282 26.3086C96.9298 26.7852 97.3829 27.3594 97.6876 28.0312C97.9923 28.7031 98.1447 29.4609 98.1447 30.3047C98.1447 31.2188 97.9767 32.0469 97.6407 32.7891C97.3126 33.5312 96.8634 34.1641 96.2931 34.6875C95.7228 35.2031 95.0548 35.6016 94.2892 35.8828C93.5314 36.1641 92.7228 36.3047 91.8634 36.3047C91.7384 36.3047 91.6173 36.3008 91.5001 36.293C91.3829 36.2852 91.2462 36.2695 91.09 36.2461L91.2892 33.9023C91.3517 33.918 91.4298 33.9297 91.5236 33.9375C91.6173 33.9375 91.7032 33.9375 91.7814 33.9375C92.172 33.9375 92.5118 33.8555 92.8009 33.6914C93.0978 33.5195 93.34 33.2891 93.5275 33C93.7228 32.7109 93.8673 32.375 93.9611 31.9922C94.0626 31.6094 94.1134 31.1992 94.1134 30.7617C94.1134 30.1523 94.0353 29.6367 93.879 29.2148C93.7306 28.7852 93.5118 28.4375 93.2228 28.1719C92.9415 27.8984 92.5978 27.6992 92.1915 27.5742C91.7931 27.4492 91.3439 27.3867 90.8439 27.3867H89.0861V42ZM107.543 40.207C107.309 40.4023 107.043 40.6172 106.746 40.8516C106.449 41.0859 106.125 41.3086 105.774 41.5195C105.422 41.7227 105.047 41.8906 104.649 42.0234C104.25 42.1641 103.828 42.2344 103.383 42.2344C102.844 42.2344 102.371 42.1328 101.965 41.9297C101.559 41.7188 101.219 41.4453 100.945 41.1094C100.68 40.7734 100.477 40.3945 100.336 39.9727C100.203 39.5508 100.137 39.1289 100.137 38.707C100.137 38.1289 100.266 37.5859 100.524 37.0781C100.789 36.5703 101.199 36.1289 101.754 35.7539C102.309 35.3711 103.016 35.0703 103.875 34.8516C104.734 34.6328 105.758 34.5234 106.945 34.5234H107.402V33.7969C107.402 33.1641 107.207 32.6836 106.817 32.3555C106.426 32.0273 105.902 31.8633 105.246 31.8633C104.957 31.8633 104.652 31.8984 104.332 31.9688C104.02 32.0391 103.703 32.1367 103.383 32.2617C103.063 32.3789 102.75 32.5195 102.445 32.6836C102.141 32.8477 101.856 33.0234 101.59 33.2109L101.379 33.0938L100.688 30.6211C101.695 30.1523 102.649 29.8242 103.547 29.6367C104.445 29.4414 105.328 29.3438 106.195 29.3438C106.938 29.3438 107.629 29.4141 108.27 29.5547C108.918 29.6953 109.477 29.9258 109.945 30.2461C110.422 30.5586 110.797 30.9688 111.07 31.4766C111.344 31.9844 111.481 32.6094 111.481 33.3516V38.3438C111.481 38.4844 111.492 38.625 111.516 38.7656C111.539 38.8984 111.582 39.0195 111.645 39.1289C111.707 39.2383 111.793 39.3281 111.902 39.3984C112.012 39.4688 112.152 39.5039 112.324 39.5039C112.434 39.5039 112.539 39.4961 112.641 39.4805C112.75 39.4648 112.871 39.4297 113.004 39.375V41.1094C112.496 41.4609 111.988 41.7383 111.481 41.9414C110.973 42.1367 110.481 42.2344 110.004 42.2344C109.387 42.2344 108.879 42.0586 108.481 41.707C108.082 41.3555 107.77 40.8555 107.543 40.207ZM107.402 35.9531H106.957C106.34 35.9531 105.828 36 105.422 36.0938C105.024 36.1797 104.703 36.3047 104.461 36.4688C104.227 36.6328 104.063 36.832 103.969 37.0664C103.875 37.293 103.828 37.5508 103.828 37.8398C103.828 38.1367 103.871 38.3906 103.957 38.6016C104.043 38.8047 104.156 38.9766 104.297 39.1172C104.445 39.25 104.613 39.3477 104.801 39.4102C104.996 39.4727 105.199 39.5039 105.41 39.5039C105.699 39.5039 106.008 39.4453 106.336 39.3281C106.672 39.2031 107.027 38.9844 107.402 38.6719V35.9531ZM119.262 39.3516C119.59 39.5 119.906 39.5977 120.211 39.6445C120.516 39.6914 120.766 39.7148 120.961 39.7148C121.477 39.7148 121.93 39.6055 122.32 39.3867C122.711 39.1602 123.035 38.8594 123.293 38.4844C123.559 38.1094 123.758 37.6797 123.891 37.1953C124.024 36.7109 124.09 36.2109 124.09 35.6953C124.09 35.1484 124.031 34.6523 123.914 34.207C123.797 33.7617 123.629 33.3828 123.41 33.0703C123.199 32.75 122.945 32.5078 122.649 32.3438C122.352 32.1719 122.024 32.0859 121.664 32.0859C121.25 32.0859 120.828 32.1914 120.399 32.4023C119.977 32.6055 119.598 32.8828 119.262 33.2344V39.3516ZM119.121 31.5117C119.41 31.2461 119.715 30.9844 120.035 30.7266C120.356 30.4688 120.692 30.2383 121.043 30.0352C121.395 29.832 121.77 29.668 122.168 29.543C122.567 29.4102 122.992 29.3438 123.445 29.3438C124.195 29.3438 124.867 29.5117 125.461 29.8477C126.063 30.1758 126.57 30.6172 126.984 31.1719C127.399 31.7188 127.715 32.3477 127.934 33.0586C128.152 33.7617 128.262 34.4883 128.262 35.2383C128.262 35.8945 128.18 36.5234 128.016 37.125C127.852 37.7266 127.617 38.2891 127.313 38.8125C127.008 39.3281 126.641 39.7969 126.211 40.2188C125.789 40.6406 125.317 41 124.793 41.2969C124.277 41.5938 123.719 41.8242 123.117 41.9883C122.516 42.1523 121.891 42.2344 121.242 42.2344C121.063 42.2344 120.879 42.2266 120.692 42.2109C120.504 42.2031 120.32 42.1875 120.141 42.1641C119.969 42.1484 119.805 42.125 119.649 42.0938C119.5 42.0625 119.371 42.0273 119.262 41.9883V48.2812H115.195V29.5781H118.652L119.121 31.5117ZM131.039 29.5781H135.106V42H131.039V29.5781ZM133.02 27.6211C132.668 27.6211 132.352 27.5703 132.07 27.4688C131.789 27.3672 131.547 27.2266 131.344 27.0469C131.149 26.8672 130.996 26.6562 130.887 26.4141C130.777 26.1719 130.723 25.9102 130.723 25.6289C130.723 25.3398 130.781 25.0703 130.899 24.8203C131.024 24.5703 131.192 24.3516 131.402 24.1641C131.613 23.9766 131.867 23.8281 132.164 23.7188C132.461 23.6094 132.785 23.5547 133.137 23.5547C133.481 23.5547 133.793 23.6094 134.074 23.7188C134.363 23.8203 134.606 23.9609 134.801 24.1406C135.004 24.3203 135.16 24.5312 135.27 24.7734C135.379 25.0156 135.434 25.2773 135.434 25.5586C135.434 25.8477 135.371 26.1172 135.246 26.3672C135.129 26.6172 134.965 26.8359 134.754 27.0234C134.543 27.2109 134.289 27.3594 133.992 27.4688C133.695 27.5703 133.371 27.6211 133.02 27.6211ZM138.609 23.2266H142.676V42H138.609V23.2266ZM146.32 23.2266H150.387V42H146.32V23.2266ZM160.606 40.207C160.371 40.4023 160.106 40.6172 159.809 40.8516C159.512 41.0859 159.188 41.3086 158.836 41.5195C158.484 41.7227 158.109 41.8906 157.711 42.0234C157.313 42.1641 156.891 42.2344 156.445 42.2344C155.906 42.2344 155.434 42.1328 155.027 41.9297C154.621 41.7188 154.281 41.4453 154.008 41.1094C153.742 40.7734 153.539 40.3945 153.399 39.9727C153.266 39.5508 153.199 39.1289 153.199 38.707C153.199 38.1289 153.328 37.5859 153.586 37.0781C153.852 36.5703 154.262 36.1289 154.817 35.7539C155.371 35.3711 156.078 35.0703 156.938 34.8516C157.797 34.6328 158.82 34.5234 160.008 34.5234H160.465V33.7969C160.465 33.1641 160.27 32.6836 159.879 32.3555C159.488 32.0273 158.965 31.8633 158.309 31.8633C158.02 31.8633 157.715 31.8984 157.395 31.9688C157.082 32.0391 156.766 32.1367 156.445 32.2617C156.125 32.3789 155.813 32.5195 155.508 32.6836C155.203 32.8477 154.918 33.0234 154.652 33.2109L154.442 33.0938L153.75 30.6211C154.758 30.1523 155.711 29.8242 156.609 29.6367C157.508 29.4414 158.391 29.3438 159.258 29.3438C160 29.3438 160.692 29.4141 161.332 29.5547C161.981 29.6953 162.539 29.9258 163.008 30.2461C163.484 30.5586 163.859 30.9688 164.133 31.4766C164.406 31.9844 164.543 32.6094 164.543 33.3516V38.3438C164.543 38.4844 164.555 38.625 164.578 38.7656C164.602 38.8984 164.645 39.0195 164.707 39.1289C164.77 39.2383 164.856 39.3281 164.965 39.3984C165.074 39.4688 165.215 39.5039 165.387 39.5039C165.496 39.5039 165.602 39.4961 165.703 39.4805C165.813 39.4648 165.934 39.4297 166.067 39.375V41.1094C165.559 41.4609 165.051 41.7383 164.543 41.9414C164.035 42.1367 163.543 42.2344 163.067 42.2344C162.449 42.2344 161.942 42.0586 161.543 41.707C161.145 41.3555 160.832 40.8555 160.606 40.207ZM160.465 35.9531H160.02C159.402 35.9531 158.891 36 158.484 36.0938C158.086 36.1797 157.766 36.3047 157.524 36.4688C157.289 36.6328 157.125 36.832 157.031 37.0664C156.938 37.293 156.891 37.5508 156.891 37.8398C156.891 38.1367 156.934 38.3906 157.02 38.6016C157.106 38.8047 157.219 38.9766 157.359 39.1172C157.508 39.25 157.676 39.3477 157.863 39.4102C158.059 39.4727 158.262 39.5039 158.473 39.5039C158.762 39.5039 159.07 39.4453 159.399 39.3281C159.734 39.2031 160.09 38.9844 160.465 38.6719V35.9531ZM168.152 38.7188L168.363 38.6016C169.012 38.9531 169.684 39.2266 170.379 39.4219C171.074 39.6172 171.711 39.7148 172.289 39.7148C172.609 39.7148 172.887 39.6836 173.121 39.6211C173.356 39.5508 173.547 39.4609 173.695 39.3516C173.852 39.2422 173.965 39.1172 174.035 38.9766C174.113 38.8281 174.152 38.6758 174.152 38.5195C174.152 38.2617 174.063 38.0508 173.883 37.8867C173.711 37.7227 173.477 37.582 173.18 37.4648C172.891 37.3477 172.559 37.2461 172.184 37.1602C171.817 37.0664 171.438 36.9648 171.047 36.8555C170.664 36.7383 170.285 36.6016 169.91 36.4453C169.543 36.2891 169.211 36.0859 168.914 35.8359C168.625 35.5859 168.391 35.2773 168.211 34.9102C168.039 34.5352 167.953 34.082 167.953 33.5508C167.953 32.9336 168.078 32.3672 168.328 31.8516C168.586 31.3359 168.961 30.8945 169.453 30.5273C169.953 30.1523 170.567 29.8633 171.293 29.6602C172.02 29.4492 172.859 29.3438 173.813 29.3438C174.055 29.3438 174.328 29.3516 174.633 29.3672C174.938 29.3828 175.246 29.4062 175.559 29.4375C175.879 29.4688 176.188 29.5117 176.484 29.5664C176.789 29.6211 177.063 29.6836 177.305 29.7539L176.707 32.3906L176.484 32.5195C175.922 32.2852 175.363 32.1172 174.809 32.0156C174.262 31.9141 173.793 31.8633 173.402 31.8633C173.082 31.8633 172.809 31.8945 172.582 31.957C172.356 32.0195 172.172 32.1055 172.031 32.2148C171.891 32.3164 171.785 32.4375 171.715 32.5781C171.652 32.7109 171.621 32.8555 171.621 33.0117C171.621 33.2852 171.711 33.5078 171.891 33.6797C172.07 33.8438 172.305 33.9844 172.594 34.1016C172.883 34.2109 173.215 34.3125 173.59 34.4062C173.965 34.4922 174.344 34.5898 174.727 34.6992C175.117 34.8008 175.5 34.9297 175.875 35.0859C176.25 35.2344 176.582 35.4336 176.871 35.6836C177.16 35.9336 177.395 36.2422 177.574 36.6094C177.754 36.9688 177.844 37.4141 177.844 37.9453C177.844 38.5156 177.727 39.0625 177.492 39.5859C177.266 40.1016 176.918 40.5547 176.449 40.9453C175.981 41.3359 175.387 41.6484 174.668 41.8828C173.957 42.1172 173.117 42.2344 172.149 42.2344C171.781 42.2344 171.399 42.2148 171 42.1758C170.609 42.1445 170.215 42.0938 169.817 42.0234C169.426 41.9531 169.035 41.8633 168.645 41.7539C168.262 41.6445 167.902 41.5156 167.567 41.3672L168.152 38.7188Z" fill="black"/>
<path d="M159.32 16.2164C159.371 16.6978 159.068 17.3211 158.115 18.0757C157.183 18.8131 155.744 19.5833 153.821 20.3678C149.98 21.9341 144.325 23.5124 137.259 25.0098C123.133 28.0031 103.446 30.6562 81.551 32.256C59.6558 33.8558 39.7168 34.098 25.1828 33.1989C17.9121 32.7492 12.0147 32.0149 7.90723 31.0293C5.84992 30.5357 4.27221 29.986 3.20164 29.3948C2.10622 28.7899 1.67828 28.22 1.62783 27.7386C1.57738 27.2572 1.8803 26.6339 2.83327 25.8793C3.76462 25.1419 5.20401 24.3717 7.12739 23.5872C10.9675 22.0209 16.6225 20.4425 23.6892 18.9452C37.8154 15.9519 57.5017 13.2988 79.3969 11.699C101.292 10.0992 121.231 9.85696 135.765 10.7561C143.036 11.2058 148.933 11.9401 153.041 12.9257C155.098 13.4193 156.676 13.969 157.746 14.5602C158.842 15.1651 159.27 15.735 159.32 16.2164Z" stroke="#EAB806"/>
<path d="M34.5806 21.4341V4.26611H45.7837L45.3267 6.8208H38.7173V11.3794H44.4829L44.061 13.7583H38.7173V21.4341H34.5806ZM53.6821 21.6685C52.6118 21.6685 51.6743 21.5044 50.8696 21.1763C50.0728 20.8403 49.4087 20.395 48.8774 19.8403C48.3462 19.2778 47.9478 18.6294 47.6821 17.895C47.4243 17.1528 47.2954 16.3755 47.2954 15.563C47.2954 14.6177 47.4673 13.731 47.811 12.9028C48.1548 12.0747 48.6392 11.356 49.2642 10.7466C49.897 10.1372 50.6587 9.65674 51.5493 9.30518C52.4399 8.95361 53.4321 8.77783 54.5259 8.77783C55.5884 8.77783 56.5181 8.94189 57.3149 9.27002C58.1196 9.59814 58.7876 10.0396 59.3188 10.5942C59.8501 11.1489 60.2485 11.8013 60.5142 12.5513C60.7876 13.2935 60.9243 14.0786 60.9243 14.9067C60.9243 15.8755 60.7485 16.7739 60.397 17.6021C60.0454 18.4224 59.5493 19.1372 58.9087 19.7466C58.2759 20.3481 57.5142 20.8208 56.6235 21.1646C55.7407 21.5005 54.7603 21.6685 53.6821 21.6685ZM54.186 19.1489C54.5532 19.1489 54.8892 19.0708 55.1938 18.9146C55.5063 18.7583 55.7759 18.5239 56.0024 18.2114C56.229 17.8911 56.4048 17.4966 56.5298 17.0278C56.6626 16.5591 56.729 16.0122 56.729 15.3872C56.729 14.8013 56.6665 14.2583 56.5415 13.7583C56.4243 13.2583 56.2485 12.8286 56.0142 12.4692C55.7876 12.1021 55.5063 11.8169 55.1704 11.6138C54.8423 11.4028 54.4634 11.2974 54.0337 11.2974C53.6587 11.2974 53.3149 11.3833 53.0024 11.5552C52.6899 11.7192 52.4204 11.9614 52.1938 12.2817C51.9751 12.6021 51.8032 12.9966 51.6782 13.4653C51.5532 13.9341 51.4907 14.4731 51.4907 15.0825C51.4907 15.6997 51.5532 16.2583 51.6782 16.7583C51.8032 17.2583 51.9829 17.688 52.2173 18.0474C52.4517 18.3989 52.7329 18.6724 53.061 18.8677C53.397 19.0552 53.772 19.1489 54.186 19.1489ZM63.7017 9.01221H67.1353L67.6274 12.6567C67.7524 12.4302 67.8774 12.1997 68.0024 11.9653C68.1353 11.731 68.2563 11.5161 68.3657 11.3208C68.4829 11.1177 68.5845 10.9419 68.6704 10.7935C68.7642 10.645 68.8306 10.5356 68.8696 10.4653C69.0181 10.2231 69.186 10.0005 69.3735 9.79736C69.561 9.58643 69.7681 9.40674 69.9946 9.2583C70.2212 9.10986 70.4751 8.99268 70.7563 8.90674C71.0376 8.8208 71.3501 8.77783 71.6938 8.77783C71.9204 8.77783 72.1665 8.80908 72.4321 8.87158C72.7056 8.92627 72.9556 9.02002 73.1821 9.15283L72.7368 12.8091C72.6665 12.7935 72.5728 12.7817 72.4556 12.7739C72.3384 12.7583 72.2134 12.7466 72.0806 12.7388C71.9556 12.731 71.8306 12.7271 71.7056 12.7271C71.5884 12.7192 71.4829 12.7153 71.3892 12.7153C70.6001 12.7153 69.8931 12.8677 69.2681 13.1724C68.6509 13.4771 68.1509 13.8677 67.7681 14.3442V21.4341H63.7017V9.01221ZM75.6313 2.66064H79.6978V21.4341H75.6313V2.66064ZM83.8813 21.4341L80.1665 15.0356L84.6313 9.11768H88.3931L84.0103 14.356L88.6626 21.4341H83.8813ZM90.5962 18.1528L90.8071 18.0356C91.4556 18.3872 92.1274 18.6606 92.8228 18.856C93.5181 19.0513 94.1548 19.1489 94.7329 19.1489C95.0532 19.1489 95.3306 19.1177 95.5649 19.0552C95.7993 18.9849 95.9907 18.895 96.1392 18.7856C96.2954 18.6763 96.4087 18.5513 96.479 18.4106C96.5571 18.2622 96.5962 18.1099 96.5962 17.9536C96.5962 17.6958 96.5063 17.4849 96.3267 17.3208C96.1548 17.1567 95.9204 17.0161 95.6235 16.8989C95.3345 16.7817 95.0024 16.6802 94.6274 16.5942C94.2603 16.5005 93.8813 16.3989 93.4907 16.2896C93.1079 16.1724 92.729 16.0356 92.354 15.8794C91.9868 15.7231 91.6548 15.52 91.3579 15.27C91.0688 15.02 90.8345 14.7114 90.6548 14.3442C90.4829 13.9692 90.397 13.5161 90.397 12.9849C90.397 12.3677 90.522 11.8013 90.772 11.2856C91.0298 10.77 91.4048 10.3286 91.897 9.96143C92.397 9.58643 93.0103 9.29736 93.7368 9.09424C94.4634 8.8833 95.3032 8.77783 96.2563 8.77783C96.4985 8.77783 96.772 8.78564 97.0767 8.80127C97.3813 8.81689 97.6899 8.84033 98.0024 8.87158C98.3228 8.90283 98.6313 8.9458 98.9282 9.00049C99.2329 9.05518 99.5063 9.11768 99.7485 9.18799L99.1509 11.8247L98.9282 11.9536C98.3657 11.7192 97.8071 11.5513 97.2524 11.4497C96.7056 11.3481 96.2368 11.2974 95.8462 11.2974C95.5259 11.2974 95.2524 11.3286 95.0259 11.3911C94.7993 11.4536 94.6157 11.5396 94.4751 11.6489C94.3345 11.7505 94.229 11.8716 94.1587 12.0122C94.0962 12.145 94.0649 12.2896 94.0649 12.4458C94.0649 12.7192 94.1548 12.9419 94.3345 13.1138C94.5142 13.2778 94.7485 13.4185 95.0376 13.5356C95.3267 13.645 95.6587 13.7466 96.0337 13.8403C96.4087 13.9263 96.7876 14.0239 97.1704 14.1333C97.561 14.2349 97.9438 14.3638 98.3188 14.52C98.6938 14.6685 99.0259 14.8677 99.3149 15.1177C99.604 15.3677 99.8384 15.6763 100.018 16.0435C100.198 16.4028 100.288 16.8481 100.288 17.3794C100.288 17.9497 100.17 18.4966 99.936 19.02C99.7095 19.5356 99.3618 19.9888 98.8931 20.3794C98.4243 20.77 97.8306 21.0825 97.1118 21.3169C96.4009 21.5513 95.561 21.6685 94.5923 21.6685C94.2251 21.6685 93.8423 21.6489 93.4438 21.6099C93.0532 21.5786 92.6587 21.5278 92.2603 21.4575C91.8696 21.3872 91.479 21.2974 91.0884 21.188C90.7056 21.0786 90.3462 20.9497 90.0103 20.8013L90.5962 18.1528Z" fill="black"/>
</svg>
