<svg width="27" height="35" viewBox="0 0 27 35" fill="none" xmlns="http://www.w3.org/2000/svg">
<rect x="2.67676" y="3.35223" width="22.8753" height="20.4152" fill="white"/>
<path fill-rule="evenodd" clip-rule="evenodd" d="M0.463135 33.6324V4.71923C0.463135 3.58319 0.919872 2.49368 1.73287 1.69038C2.54587 0.887081 3.64853 0.435791 4.79828 0.435791L22.1389 0.435791C23.2886 0.435791 24.3913 0.887081 25.2043 1.69038C26.0173 2.49368 26.474 3.58319 26.474 4.71923V33.6324C26.4741 33.8184 26.4253 34.0012 26.3322 34.1628C26.2391 34.3244 26.105 34.4593 25.9432 34.5542C25.7813 34.6491 25.5972 34.7007 25.4091 34.7039C25.2209 34.7072 25.0351 34.6619 24.87 34.5727L13.4686 28.4259L2.06714 34.5727C1.90203 34.6619 1.71625 34.7072 1.52807 34.7039C1.3399 34.7007 1.15582 34.6491 0.993955 34.5542C0.832092 34.4593 0.698023 34.3244 0.604947 34.1628C0.511872 34.0012 0.462997 33.8184 0.463135 33.6324ZM13.8154 9.21684C13.7837 9.15262 13.7344 9.09848 13.6731 9.06062C13.6117 9.02275 13.5409 9.00267 13.4686 9.00267C13.3963 9.00267 13.3254 9.02275 13.2641 9.06062C13.2028 9.09848 13.1534 9.15262 13.1218 9.21684L11.7475 11.969C11.72 12.0246 11.6792 12.0728 11.6286 12.1094C11.578 12.146 11.5191 12.1698 11.4571 12.1788L8.37911 12.62C8.30825 12.6307 8.24179 12.6606 8.18717 12.7064C8.13256 12.7523 8.09194 12.8123 8.06989 12.8796C8.04783 12.947 8.04521 13.0191 8.0623 13.0879C8.0794 13.1567 8.11555 13.2194 8.16669 13.269L10.3906 15.4128C10.4817 15.5006 10.5228 15.627 10.5012 15.7512L9.97878 18.7796C9.96699 18.8495 9.97518 18.9213 10.0024 18.9869C10.0296 19.0525 10.0748 19.1093 10.1329 19.1509C10.191 19.1925 10.2597 19.2173 10.3313 19.2224C10.4028 19.2276 10.4744 19.2129 10.538 19.1801L13.2908 17.7495C13.346 17.7209 13.4074 17.706 13.4697 17.706C13.5319 17.706 13.5933 17.7209 13.6485 17.7495L16.4013 19.1801C16.4648 19.2124 16.5362 19.2265 16.6074 19.2211C16.6786 19.2156 16.7468 19.1908 16.8046 19.1493C16.8623 19.1077 16.9073 19.0512 16.9344 18.986C16.9616 18.9207 16.9699 18.8493 16.9584 18.7796L16.4338 15.7491C16.4227 15.6882 16.4268 15.6256 16.4457 15.5667C16.4646 15.5077 16.4977 15.4542 16.5422 15.4107L18.7704 13.2668C18.8216 13.2172 18.8577 13.1545 18.8748 13.0857C18.8919 13.017 18.8893 12.9449 18.8672 12.8775C18.8452 12.8101 18.8046 12.7501 18.75 12.7043C18.6953 12.6584 18.6289 12.6285 18.558 12.6179L15.4801 12.1767C15.418 12.1677 15.3592 12.1438 15.3086 12.1073C15.258 12.0707 15.2171 12.0225 15.1896 11.9668L13.8154 9.21684Z" fill="#EAB806"/>
</svg>
